<svg xmlns="http://www.w3.org/2000/svg" id="e66cdcae-b662-46fb-b424-18ba1a805fb0" width="832.5" height="677.845" data-name="Layer 1" viewBox="0 0 832.5 677.845"><title>bookmarks</title><ellipse cx="667" cy="643.845" fill="#f83245" rx="151" ry="34"/><ellipse cx="681" cy="633.845" fill="none" stroke="#3f3d56" stroke-miterlimit="10" rx="151" ry="34"/><circle cx="436.5" cy="304.345" r="30" fill="#f83245"/><circle cx="557.5" cy="304.345" r="30" fill="#f83245"/><circle cx="678.5" cy="304.345" r="30" fill="#f83245"/><circle cx="12.5" cy="20.345" r="3" fill="#f86b75"/><circle cx="21.5" cy="20.345" r="3" fill="#fad375"/><circle cx="30.5" cy="20.345" r="3" fill="#8bcc55"/><rect width="206" height="64" x="67" y="66.845" fill="#f83245"/><rect width="364" height="216" x=".5" y="10.345" fill="none" stroke="#3f3d56" stroke-miterlimit="10"/><line x1=".5" x2="364.5" y1="26.703" y2="26.703" fill="none" stroke="#3f3d56" stroke-miterlimit="10"/><circle cx="13.5" cy="18.345" r="3" fill="none" stroke="#3f3d56" stroke-miterlimit="10"/><circle cx="22.5" cy="18.345" r="3" fill="none" stroke="#3f3d56" stroke-miterlimit="10"/><circle cx="31.5" cy="18.345" r="3" fill="none" stroke="#3f3d56" stroke-miterlimit="10"/><rect width="206" height="64" x="79.5" y="54.345" fill="none" stroke="#3f3d56" stroke-miterlimit="10"/><rect width="276" height="8.276" x="41" y="158.845" fill="#f2f2f2"/><rect width="276" height="8.276" x="41" y="178.707" fill="#f2f2f2"/><rect width="276" height="8.276" x="41" y="198.569" fill="#f2f2f2"/><rect width="276" height="8.276" x="44" y="154.845" fill="none" stroke="#3f3d56" stroke-miterlimit="10"/><rect width="276" height="8.276" x="44" y="174.707" fill="none" stroke="#3f3d56" stroke-miterlimit="10"/><rect width="276" height="8.276" x="44" y="194.569" fill="none" stroke="#3f3d56" stroke-miterlimit="10"/><circle cx="96.5" cy="394.345" r="3" fill="#f86b75"/><circle cx="105.5" cy="394.345" r="3" fill="#fad375"/><circle cx="114.5" cy="394.345" r="3" fill="#8bcc55"/><rect width="206" height="64" x="151" y="440.845" fill="#f83245"/><polyline fill="none" stroke="#3f3d56" stroke-miterlimit="10" points="448.5 428.345 448.5 600.345 84.5 600.345 84.5 384.345 380.5 384.345"/><line x1="84.5" x2="381" y1="400.703" y2="400.703" fill="none" stroke="#3f3d56" stroke-miterlimit="10"/><circle cx="97.5" cy="392.345" r="3" fill="none" stroke="#3f3d56" stroke-miterlimit="10"/><circle cx="106.5" cy="392.345" r="3" fill="none" stroke="#3f3d56" stroke-miterlimit="10"/><circle cx="115.5" cy="392.345" r="3" fill="none" stroke="#3f3d56" stroke-miterlimit="10"/><rect width="206" height="64" x="163.5" y="428.345" fill="none" stroke="#3f3d56" stroke-miterlimit="10"/><circle cx="392.5" cy="221.345" r="3" fill="#f86b75"/><circle cx="401.5" cy="221.345" r="3" fill="#fad375"/><circle cx="410.5" cy="221.345" r="3" fill="#8bcc55"/><rect width="364" height="216" x="380.5" y="211.345" fill="none" stroke="#3f3d56" stroke-miterlimit="10"/><line x1="380.5" x2="744.5" y1="227.703" y2="227.703" fill="none" stroke="#3f3d56" stroke-miterlimit="10"/><circle cx="393.5" cy="219.345" r="3" fill="none" stroke="#3f3d56" stroke-miterlimit="10"/><circle cx="402.5" cy="219.345" r="3" fill="none" stroke="#3f3d56" stroke-miterlimit="10"/><circle cx="411.5" cy="219.345" r="3" fill="none" stroke="#3f3d56" stroke-miterlimit="10"/><circle cx="441.5" cy="299.345" r="30" fill="none" stroke="#3f3d56" stroke-miterlimit="10"/><circle cx="562.5" cy="299.345" r="30" fill="none" stroke="#3f3d56" stroke-miterlimit="10"/><circle cx="683.5" cy="299.345" r="30" fill="none" stroke="#3f3d56" stroke-miterlimit="10"/><rect width="82" height="8" x="396" y="354.845" fill="#f2f2f2"/><rect width="82" height="8" x="518" y="354.845" fill="#f2f2f2"/><rect width="82" height="8" x="640" y="354.845" fill="#f2f2f2"/><rect width="82" height="8" x="400" y="351.845" fill="none" stroke="#3f3d56" stroke-miterlimit="10"/><rect width="82" height="8" x="522" y="351.845" fill="none" stroke="#3f3d56" stroke-miterlimit="10"/><rect width="82" height="8" x="644" y="351.845" fill="none" stroke="#3f3d56" stroke-miterlimit="10"/><rect width="63" height="54" x="98" y="529.845" fill="#f2f2f2"/><rect width="63" height="54" x="214.5" y="530.345" fill="#f2f2f2"/><rect width="63" height="54" x="331" y="530.845" fill="#f2f2f2"/><rect width="63" height="54" x="107" y="519.845" fill="none" stroke="#3f3d56" stroke-miterlimit="10"/><rect width="63" height="54" x="223.5" y="520.345" fill="none" stroke="#3f3d56" stroke-miterlimit="10"/><rect width="63" height="54" x="340" y="520.845" fill="none" stroke="#3f3d56" stroke-miterlimit="10"/><polygon fill="#79758c" points="600.786 204.492 572.726 220.039 602.65 209.483 600.786 204.492"/><ellipse cx="792.31" cy="315.866" fill="#3f3d56" rx="7.829" ry="15.772" transform="translate(-242.57387 149.13382) rotate(-17.99425)"/><ellipse cx="816.715" cy="303.839" fill="#3f3d56" rx="5.906" ry="11.137" transform="translate(-237.66497 156.08467) rotate(-17.99425)"/><polygon fill="#3f3d56" points="610.365 195.681 628.977 188.961 632.933 199.919 614.919 212.087 610.365 195.681"/><path fill="#a0616a" d="M792.33488,347.04626l5-11s12-32,1-26-15,22-15,22l-3,10Z" transform="translate(-183.75 -111.0777)"/><path fill="#a0616a" d="M929.33488,513.04626s-17,33-22,34-5-30-5-30,10-9,14-8S929.33488,513.04626,929.33488,513.04626Z" transform="translate(-183.75 -111.0777)"/><path fill="#55536e" d="M904.33488,721.04626s9,5,5,16-6,8-8,17-20,8-21,4-3-20,2-26S904.33488,721.04626,904.33488,721.04626Z" transform="translate(-183.75 -111.0777)"/><path fill="#55536e" d="M815.33488,721.04626s-9,5-5,16,6,8,8,17,20,8,21,4,3-20-2-26S815.33488,721.04626,815.33488,721.04626Z" transform="translate(-183.75 -111.0777)"/><path fill="#3f3d56" d="M899.33488,521.04626s8,5,10,36-1,66-2,74,1,20,3,26-5,52-5,52a23.4326,23.4326,0,0,1,0,20c-5,11-20,22-24,11a27.13063,27.13063,0,0,0-3-11c-3-6,2-30,2-30s-4-38-3-48-12-69-14-79-1-18-2-15-19,86-19,86,2,53,1,60,4,21,1,26-9,23-20,12-9-15-10-20,0-11,0-19-8-53-4-60,2-16,1-32-2-93,8-107S899.33488,521.04626,899.33488,521.04626Z" transform="translate(-183.75 -111.0777)"/><circle cx="691.085" cy="198.469" r="24" fill="#a0616a"/><path fill="#a0616a" d="M890.33488,319.04626s-1,36,4,42-43-5-43-5,11-23,4-38S890.33488,319.04626,890.33488,319.04626Z" transform="translate(-183.75 -111.0777)"/><path fill="#55536e" d="M899.33488,357.04626s-2-8-14-10-26.19084-4-30.59542,0-6.40458,9-9.40458,9h-14l-22,39s11,13,8,37-8,68-8,68a219.99527,219.99527,0,0,1,21,34c10,20,79,18,75-17,0,0-5-9-3-17s8-62,8-62l23-61S901.33488,361.04626,899.33488,357.04626Z" transform="translate(-183.75 -111.0777)"/><path fill="#55536e" d="M926.33488,376.04626h7s4,23,3,37-1,47-1,47,4,8,3,15-3,26-3,26-1,27-20,13c0,0-6-3-3-16s-2-27-2-27,3-9,2-15-5-25-5-25Z" transform="translate(-183.75 -111.0777)"/><path fill="#55536e" d="M836.33488,359.04626l-5-3s-7-3-17,0-15,2-19,1-1-11-1-11-8-14-16-6-8,24-8,24-5,10,13,16,26,15,26,15h20Z" transform="translate(-183.75 -111.0777)"/><path fill="#3f3d56" d="M873.20839,338.19386a4.63628,4.63628,0,0,0-2.8751-4.13,13.10926,13.10926,0,0,0-3.41741-.67489c-3.40526-.43912-6.90823-1.6879-8.8918-4.28928-2.64122-3.46385-1.91928-8.30936-4.03611-12.0696a41.85984,41.85984,0,0,0-3.22706-4.24013c-3.69409-4.94381-4.34515-11.25545-4.68151-17.26a7.41034,7.41034,0,0,1,.40689-3.60635,13.863,13.863,0,0,1,2.28185-2.81564,9.35213,9.35213,0,0,0,2.26249-6.241c-.10806-4.6505,6.54605-7.77555,11.25866-9.38154s9.82338-1.86178,14.84422-1.92973c2.88641-.03906,5.86539-.00491,8.51833,1.04929a19.607,19.607,0,0,1,4.27089,2.54282c5.5601,4.0699,10.78209,9.07349,12.64833,15.40628a33.3114,33.3114,0,0,1,1.01324,8.8482,5.7908,5.7908,0,0,1-.39612,2.72307c-.66724,1.34161-2.24018,2.06829-3.25707,3.2061-1.89928,2.12511-1.56121,5.19994-1.80185,7.94983a18.21013,18.21013,0,0,1-8.944,13.77276,11.406,11.406,0,0,0-2.79721,1.9338,12.27894,12.27894,0,0,0-1.54257,2.69289C882.84517,335.5174,877.80544,338.05811,873.20839,338.19386Z" transform="translate(-183.75 -111.0777)"/><polygon fill="#79758c" points="192.598 10.671 179.278 18.05 193.483 13.04 192.598 10.671"/><ellipse cx="380.038" cy="121.889" fill="#3f3d56" rx="3.716" ry="7.487" transform="translate(-202.81554 12.28627) rotate(-17.99425)"/><ellipse cx="391.623" cy="116.18" fill="#3f3d56" rx="2.804" ry="5.286" transform="translate(-200.48537 15.58571) rotate(-17.99425)"/><polygon fill="#3f3d56" points="197.145 6.488 205.98 3.299 207.858 8.5 199.307 14.276 197.145 6.488"/><polygon fill="#79758c" points="282.598 382.671 269.278 390.05 283.483 385.04 282.598 382.671"/><ellipse cx="470.038" cy="493.889" fill="#3f3d56" rx="3.716" ry="7.487" transform="translate(-313.33226 58.28467) rotate(-17.99425)"/><ellipse cx="481.623" cy="488.18" fill="#3f3d56" rx="2.804" ry="5.286" transform="translate(-311.00209 61.58411) rotate(-17.99425)"/><polygon fill="#3f3d56" points="287.145 378.488 295.98 375.299 297.858 380.5 289.307 386.276 287.145 378.488"/></svg>